<svg width="362" height="92" viewBox="0 0 362 92" fill="none" xmlns="http://www.w3.org/2000/svg">
<path d="M351.286 72.582C348.635 72.582 346.436 71.7413 344.69 70.06C342.944 68.3787 342.071 66.3093 342.071 63.852C342.071 61.0713 343.074 58.711 345.078 56.771C347.148 54.7663 349.67 53.764 352.644 53.764C355.296 53.764 357.494 54.6047 359.24 56.286C361.051 57.9673 361.956 60.0367 361.956 62.494C361.956 65.2747 360.922 67.6673 358.852 69.672C356.783 71.612 354.261 72.582 351.286 72.582Z" fill="#9F1E6D"/>
<path d="M321.241 91.691C319.365 91.691 317.587 91.3353 315.906 90.624C314.224 89.9773 313.06 88.975 312.414 87.617C313.966 81.021 315.227 75.1687 316.197 70.06C317.231 64.9513 318.04 60.3923 318.622 56.383C319.204 52.3737 319.624 48.72 319.883 45.422C320.141 42.0593 320.303 38.826 320.368 35.722C318.169 35.8513 316.067 36.0777 314.063 36.401C312.058 36.6597 310.312 37.0477 308.825 37.565L308.631 36.886C310.506 35.0107 312.446 33.4587 314.451 32.23C316.455 30.9367 318.46 29.902 320.465 29.126V21.754C320.465 16.7747 321.467 12.733 323.472 9.629C325.476 6.46033 328.031 4.13233 331.135 2.645C334.303 1.093 337.569 0.317001 340.932 0.317001C345.394 0.317001 348.724 1.384 350.923 3.518C353.186 5.652 354.318 8.04467 354.318 10.696C354.318 12.636 353.703 14.5113 352.475 16.322C351.311 18.1327 349.532 19.6523 347.14 20.881C344.747 22.045 341.74 22.627 338.119 22.627C339.153 20.7517 339.929 18.8763 340.447 17.001C341.029 15.1257 341.32 13.4767 341.32 12.054C341.32 10.9547 341.158 10.0817 340.835 9.435C340.511 8.72367 340.059 8.368 339.477 8.368C338.248 8.368 337.052 9.92 335.888 13.024C334.788 16.0633 334.239 20.0727 334.239 25.052V26.895C336.114 26.8303 337.892 26.8627 339.574 26.992C341.32 27.1213 342.936 27.2507 344.424 27.38C344.553 27.8327 344.65 28.3177 344.715 28.835C344.779 29.3523 344.812 29.8697 344.812 30.387C344.812 31.357 344.682 32.327 344.424 33.297C344.165 34.267 343.809 35.2693 343.357 36.304C342.193 36.1747 340.867 36.0453 339.38 35.916C337.892 35.7867 336.308 35.6897 334.627 35.625V37.759C334.627 41.3157 334.465 45.422 334.142 50.078C333.883 54.734 333.366 60.263 332.59 66.665C331.814 73.067 330.617 80.6977 329.001 89.557C326.996 90.9797 324.409 91.691 321.241 91.691Z" fill="#9F1E6D"/>
<path d="M300.21 20.105C297.624 20.105 295.49 19.329 293.808 17.777C292.192 16.1603 291.383 14.1557 291.383 11.763C291.383 9.17633 292.353 6.94533 294.293 5.07C296.233 3.19466 298.594 2.257 301.374 2.257C303.961 2.257 306.063 3.06533 307.679 4.682C309.361 6.29867 310.201 8.30334 310.201 10.696C310.201 13.2827 309.231 15.5137 307.291 17.389C305.351 19.1997 302.991 20.105 300.21 20.105ZM293.42 72.388C290.898 72.388 288.635 71.515 286.63 69.769C284.626 67.9583 283.623 65.0807 283.623 61.136C283.623 58.8727 283.914 56.771 284.496 54.831C285.143 52.8263 285.854 50.8863 286.63 49.011C287.471 47.1357 288.182 45.325 288.764 43.579C289.411 41.7683 289.734 39.99 289.734 38.244C289.734 36.692 289.476 35.5927 288.958 34.946C288.441 34.2347 287.827 33.879 287.115 33.879C286.016 33.879 284.949 34.5903 283.914 36.013L283.235 35.625C283.494 33.0383 284.302 30.8397 285.66 29.029C287.083 27.1537 288.797 25.6987 290.801 24.664C292.871 23.6293 294.908 23.112 296.912 23.112C299.37 23.112 301.504 23.9203 303.314 25.537C305.125 27.089 306.03 29.6433 306.03 33.2C306.03 35.334 305.707 37.5973 305.06 39.99C304.478 42.318 303.767 44.646 302.926 46.974C302.15 49.302 301.439 51.4683 300.792 53.473C300.21 55.4777 299.919 57.1913 299.919 58.614C299.919 59.8427 300.146 60.7157 300.598 61.233C301.116 61.7503 301.665 62.009 302.247 62.009C302.829 62.009 303.379 61.8473 303.896 61.524C304.478 61.136 304.899 60.7157 305.157 60.263L305.836 60.457C305.836 62.8497 305.19 64.9513 303.896 66.762C302.668 68.508 301.116 69.8983 299.24 70.933C297.365 71.903 295.425 72.388 293.42 72.388Z" fill="#9F1E6D"/>
<path d="M267.079 72.679C264.751 72.679 262.1 72.2587 259.125 71.418C256.215 70.5773 253.143 69.672 249.91 68.702C246.741 67.6673 243.573 66.9237 240.404 66.471C238.205 68.5403 236.136 70.0277 234.196 70.933C232.321 71.7737 230.639 72.194 229.152 72.194C227.277 72.194 225.692 71.6443 224.399 70.545C223.106 69.4457 222.136 68.0553 221.489 66.374C220.842 64.628 220.519 62.8497 220.519 61.039C220.519 59.1637 220.842 57.3853 221.489 55.704C222.2 54.0227 223.267 52.6647 224.69 51.63C226.113 50.5307 227.923 49.981 230.122 49.981C230.575 49.981 231.06 50.0133 231.577 50.078C232.094 50.1427 232.644 50.2397 233.226 50.369C234.455 46.6183 235.522 42.4797 236.427 37.953C237.397 33.3617 238.141 28.8673 238.658 24.47C239.24 20.0727 239.531 16.2573 239.531 13.024C239.531 11.7307 239.466 10.8253 239.337 10.308C239.208 9.726 238.981 9.144 238.658 8.562L238.561 8.271C239.337 6.20167 240.63 4.585 242.441 3.421C244.252 2.257 246.159 1.675 248.164 1.675C250.363 1.675 252.173 2.48334 253.596 4.1C255.019 5.652 255.73 8.271 255.73 11.957C255.73 14.285 255.439 17.195 254.857 20.687C254.34 24.1143 253.596 27.8327 252.626 31.842C251.656 35.7867 250.589 39.699 249.425 43.579C248.261 47.459 247.097 50.9187 245.933 53.958C248.778 54.6047 251.624 55.3483 254.469 56.189C257.379 57.0297 260.224 57.45 263.005 57.45C265.139 57.45 267.176 57.062 269.116 56.286C271.121 55.51 272.996 54.0873 274.742 52.018C276.035 52.8587 276.973 54.055 277.555 55.607C278.202 57.159 278.525 58.808 278.525 60.554C278.525 62.494 278.105 64.4017 277.264 66.277C276.488 68.0877 275.259 69.6073 273.578 70.836C271.897 72.0647 269.73 72.679 267.079 72.679Z" fill="#9F1E6D"/>
<path d="M175.237 91.4C173.621 91.4 172.069 90.9797 170.581 90.139C169.159 89.2983 167.962 87.9403 166.992 86.065C166.087 84.1897 165.634 81.6677 165.634 78.499C165.634 75.4597 166.022 72.1617 166.798 68.605C167.639 65.0483 168.577 61.4917 169.611 57.935C170.646 54.3137 171.551 50.8863 172.327 47.653C173.168 44.4197 173.588 41.542 173.588 39.02C173.588 37.1447 173.33 35.8837 172.812 35.237C172.295 34.5257 171.681 34.17 170.969 34.17C170.323 34.17 169.676 34.364 169.029 34.752C168.383 35.14 167.833 35.5927 167.38 36.11L166.701 35.722C166.701 33.4587 167.348 31.3893 168.641 29.514C169.999 27.574 171.713 26.022 173.782 24.858C175.852 23.694 177.986 23.112 180.184 23.112C182.318 23.112 184.032 23.6617 185.325 24.761C186.619 25.7957 187.589 27.1537 188.235 28.835C188.947 30.5163 189.367 32.327 189.496 34.267C191.954 30.387 194.637 27.5093 197.547 25.634C200.457 23.7587 203.206 22.821 205.792 22.821C209.284 22.821 212.227 24.47 214.619 27.768C217.077 31.066 218.305 36.1747 218.305 43.094C218.305 49.5607 217.271 54.9927 215.201 59.39C213.132 63.7227 210.513 66.9883 207.344 69.187C204.24 71.321 201.072 72.388 197.838 72.388C195.058 72.388 192.471 71.5797 190.078 69.963C187.75 68.2817 185.94 65.8567 184.646 62.688C184.064 65.3393 183.547 67.9583 183.094 70.545C182.706 73.1317 182.512 75.6537 182.512 78.111C182.512 79.469 182.577 80.7947 182.706 82.088C182.9 83.3813 183.191 84.6747 183.579 85.968V86.55C182.739 88.1667 181.542 89.363 179.99 90.139C178.503 90.9797 176.919 91.4 175.237 91.4ZM193.085 62.979C194.637 62.979 195.995 62.3647 197.159 61.136C198.323 59.9073 199.326 58.323 200.166 56.383C201.007 54.3783 201.621 52.2443 202.009 49.981C202.462 47.7177 202.688 45.519 202.688 43.385C202.688 40.669 202.333 38.3733 201.621 36.498C200.91 34.558 199.811 33.588 198.323 33.588C196.448 33.588 194.346 35.4957 192.018 39.311C189.69 43.0617 187.88 48.7847 186.586 56.48C187.168 58.4847 188.041 60.069 189.205 61.233C190.369 62.397 191.663 62.979 193.085 62.979Z" fill="#F8DDEE"/>
<path d="M132.423 72.679C127.573 72.679 123.564 71.709 120.395 69.769C117.227 67.829 114.866 65.2747 113.314 62.106C111.827 58.8727 111.083 55.4453 111.083 51.824C111.083 48.3967 111.698 44.9693 112.926 41.542C114.22 38.1147 116.063 35.0107 118.455 32.23C120.913 29.3847 123.887 27.1213 127.379 25.44C130.871 23.694 134.881 22.821 139.407 22.821C144.257 22.821 148.234 23.8233 151.338 25.828C154.507 27.768 156.835 30.3547 158.322 33.588C159.874 36.8213 160.65 40.281 160.65 43.967C160.65 47.3297 160.036 50.7247 158.807 54.152C157.579 57.5147 155.736 60.6187 153.278 63.464C150.886 66.2447 147.943 68.4757 144.451 70.157C140.959 71.8383 136.95 72.679 132.423 72.679ZM135.042 64.434C136.788 64.434 138.243 63.5287 139.407 61.718C140.571 59.9073 141.444 57.6117 142.026 54.831C142.608 51.9857 142.899 49.108 142.899 46.198C142.899 43.6113 142.641 41.1863 142.123 38.923C141.671 36.595 140.959 34.7197 139.989 33.297C139.019 31.8097 137.758 31.066 136.206 31.066C134.525 31.066 133.07 31.9713 131.841 33.782C130.677 35.5927 129.804 37.8883 129.222 40.669C128.64 43.4497 128.349 46.3273 128.349 49.302C128.349 51.8887 128.576 54.346 129.028 56.674C129.546 58.9373 130.289 60.8127 131.259 62.3C132.229 63.7227 133.49 64.434 135.042 64.434Z" fill="#F8DDEE"/>
<path d="M65.0885 72.388C62.3078 72.388 60.0768 71.4503 58.3955 69.575C56.7142 67.6997 55.8735 65.1453 55.8735 61.912C55.8735 60.166 56.0998 57.9027 56.5525 55.122C57.0052 52.2767 57.5548 49.1727 58.2015 45.81C58.9128 42.3827 59.5919 38.923 60.2385 35.431C60.8852 31.8743 61.4348 28.447 61.8875 25.149C62.3402 21.851 62.5665 18.941 62.5665 16.419C62.5665 13.2503 62.1462 10.9547 61.3055 9.532V8.95C62.7282 7.33334 64.2802 6.13701 65.9615 5.361C67.6429 4.585 69.2918 4.19699 70.9085 4.19699C73.3659 4.19699 75.4675 5.07 77.2135 6.816C78.9595 8.562 79.8325 11.181 79.8325 14.673C79.8325 16.5483 79.5739 18.844 79.0565 21.56C78.5392 24.276 77.9249 27.1213 77.2135 30.096C76.5022 33.0707 75.7908 35.8513 75.0795 38.438C76.3082 36.0453 77.9249 33.685 79.9295 31.357C81.9989 28.9643 84.3269 26.992 86.9135 25.44C89.5649 23.888 92.3132 23.112 95.1585 23.112C98.3918 23.112 100.558 24.1143 101.658 26.119C102.822 28.1237 103.404 30.6133 103.404 33.588C103.404 36.304 103.113 39.214 102.531 42.318C101.949 45.3573 101.367 48.2997 100.785 51.145C100.203 53.9257 99.9115 56.2537 99.9115 58.129C99.9115 60.845 100.72 62.203 102.337 62.203C103.048 62.203 103.662 62.009 104.18 61.621C104.762 61.1683 105.182 60.6833 105.441 60.166L106.12 60.651C106.12 63.173 105.505 65.307 104.277 67.053C103.048 68.799 101.464 70.1247 99.5235 71.03C97.6482 71.9353 95.7082 72.388 93.7035 72.388C91.0522 72.388 88.6595 71.515 86.5255 69.769C84.3915 67.9583 83.3245 65.0483 83.3245 61.039C83.3245 58.7757 83.6155 56.3183 84.1975 53.667C84.8442 51.0157 85.4585 48.4613 86.0405 46.004C86.6225 43.482 86.9135 41.3803 86.9135 39.699C86.9135 37.5003 86.1375 36.401 84.5855 36.401C83.1628 36.401 81.6109 37.1123 79.9295 38.535C78.2482 39.9577 76.7608 41.736 75.4675 43.87C74.2388 46.004 73.4305 48.1057 73.0425 50.175C72.9132 50.6923 72.8485 51.3067 72.8485 52.018C72.8485 53.6347 73.0749 55.1867 73.5275 56.674C74.0449 58.1613 74.3035 59.9073 74.3035 61.912C74.3035 64.8867 73.5275 67.3763 71.9755 69.381C70.4235 71.3857 68.1278 72.388 65.0885 72.388Z" fill="#F8DDEE"/>
<path d="M19.691 72.582C15.3583 72.582 11.7693 71.8383 8.924 70.351C6.14333 68.8637 4.074 66.956 2.716 64.628C1.358 62.3 0.679001 59.9073 0.679001 57.45C0.679001 55.0573 1.261 52.794 2.425 50.66C3.589 48.4613 5.238 46.6507 7.372 45.228C9.57067 43.8053 12.1573 43.094 15.132 43.094C15.0673 43.676 15.035 44.2257 15.035 44.743C15.035 45.1957 15.035 45.422 15.035 45.422C15.035 49.7547 15.4553 53.182 16.296 55.704C17.1367 58.1613 18.2037 59.9397 19.497 61.039C20.7903 62.0737 22.116 62.591 23.474 62.591C25.5433 62.591 27.3863 61.7827 29.003 60.166C30.6197 58.4847 31.428 56.5447 31.428 54.346C31.428 51.8887 30.361 49.7223 28.227 47.847C26.1577 45.9717 23.5063 43.9023 20.273 41.639C18.4623 40.281 16.5223 38.7613 14.453 37.08C12.4483 35.334 10.7347 33.297 9.312 30.969C7.88933 28.5763 7.178 25.7633 7.178 22.53C7.178 19.1673 7.954 16.1927 9.506 13.606C11.1227 11.0193 13.2243 8.853 15.811 7.107C18.4623 5.29633 21.34 3.93833 24.444 3.033C27.6127 2.063 30.749 1.578 33.853 1.578C37.6683 1.578 40.8047 2.19234 43.262 3.421C45.7193 4.64967 47.5623 6.234 48.791 8.174C50.0197 10.114 50.634 12.1187 50.634 14.188C50.634 16.128 50.0843 18.0033 48.985 19.814C47.9503 21.56 46.3983 22.9827 44.329 24.082C42.2597 25.1813 39.7053 25.731 36.666 25.731C36.86 24.8257 36.9893 24.0173 37.054 23.306C37.1187 22.53 37.151 21.851 37.151 21.269C37.151 18.0357 36.4397 15.74 35.017 14.382C33.659 12.9593 32.1393 12.248 30.458 12.248C28.8413 12.248 27.2893 12.8623 25.802 14.091C24.3147 15.255 23.571 17.1627 23.571 19.814C23.571 22.0773 24.153 24.0173 25.317 25.634C26.5457 27.2507 28.0977 28.6733 29.973 29.902C31.913 31.1307 33.95 32.327 36.084 33.491C38.2827 34.655 40.3843 35.9483 42.389 37.371C44.4583 38.729 46.172 40.3457 47.53 42.221C48.888 44.0963 49.567 46.4567 49.567 49.302C49.567 52.2767 48.7587 55.1867 47.142 58.032C45.5253 60.8127 43.3267 63.3023 40.546 65.501C37.7653 67.635 34.5643 69.3487 30.943 70.642C27.3863 71.9353 23.6357 72.582 19.691 72.582Z" fill="#F8DDEE"/>
<path fill-rule="evenodd" clip-rule="evenodd" d="M5 86C5 84.3431 6.34315 83 8 83L149 83V89L8 89C6.34315 89 5 87.6569 5 86Z" fill="#F8DDEE"/>
<path fill-rule="evenodd" clip-rule="evenodd" d="M298 89L202 89V83L298 83C299.657 83 301 84.3431 301 86C301 87.6568 299.657 89 298 89Z" fill="#9F1E6D"/>
</svg>
